<?xml version="1.0" encoding="UTF-8"?><svg id="Layer_3" xmlns="http://www.w3.org/2000/svg" viewBox="0 0 1245.02 583.11"><defs><style>.cls-1{fill:#fff;stroke-width:0px;}</style></defs><path class="cls-1" d="m1040.82,212.42v68.5l-.23.23h-74.05l.36,164.95h73.46v68.73h-234.09v-68.73h75v-164.95h-75v-68.73h234.56ZM419.63,493.08c-15.52,14.32-37.8,21.48-66.83,21.48h-140.48V213.4h136.69c27.27,0,48.73,6.67,64.39,19.99,26.69,20.22,31,74.94,11.16,102.72-8.21,12.06-19.12,20.07-32.76,24.04,16.15,4.25,28.71,12.96,37.68,26.16,21.55,29.84,16.52,84.34-9.84,106.76Zm-123.26-162.28h32.56c7.57,0,13.2-1.69,16.85-5.1,7.49-6.09,7.15-26.06,0-32.11-3.66-3.55-9.28-5.32-16.85-5.32h-32.56v42.53Zm60.59,87.2c0-14.46-7.45-21.69-22.34-21.69h-38.25v42.53h38.25c7.57,0,13.18-1.62,16.84-4.89,3.66-3.24,5.5-8.56,5.5-15.95ZM62.7,30.97c3.17-.94,5.7-2.61,7.61-5.01,1.9-2.4,2.86-5.42,2.86-9.06,0-4.93-1.77-8.83-5.32-11.7-3.55-2.87-8.46-4.31-14.74-4.31h-27.8v61.76h28.77c6.45,0,11.48-1.51,15.09-4.53,3.61-3.02,5.41-7.11,5.41-12.27,0-3.58-1.09-6.76-3.26-9.54-2.17-2.78-5.04-4.56-8.62-5.32Zm-22.35-18.03h9.85c2.46,0,4.35.56,5.67,1.67,1.32,1.11,1.98,2.73,1.98,4.84s-.66,3.71-1.98,4.79c-1.32,1.09-3.21,1.63-5.67,1.63h-9.85v-12.93Zm11.08,37.56h-11.08v-13.64h10.91c2.52,0,4.5.62,5.94,1.85,1.44,1.23,2.16,2.93,2.16,5.1s-.69,3.83-2.07,4.97c-1.38,1.14-3.33,1.72-5.85,1.72Zm80.32,12.14l-14.25-24.46c4.52-1.35,7.93-3.64,10.25-6.86,2.32-3.22,3.48-6.89,3.48-11,0-3.64-.85-6.93-2.55-9.9-1.7-2.96-4.27-5.29-7.7-6.99-3.43-1.7-7.58-2.55-12.45-2.55h-25.25v61.76h15.04v-23.31h3.61l12.84,23.31h16.98ZM98.33,13.37h9.32c2.76,0,4.82.67,6.2,2.02,1.38,1.35,2.07,3.2,2.07,5.54,0,2.46-.69,4.37-2.07,5.72-1.38,1.35-3.45,2.02-6.2,2.02h-9.32v-15.31ZM140.64.88v61.76h15.04V.88h-15.04Zm83.58,19.53c-1.64-6.33-5-11.29-10.07-14.87-5.07-3.58-11.3-5.37-18.69-5.37-6.1,0-11.52,1.33-16.27,4-4.75,2.67-8.46,6.39-11.13,11.17-2.67,4.78-4,10.22-4,16.32s1.33,11.52,4,16.27c2.67,4.75,6.39,8.46,11.17,11.13,4.78,2.67,10.22,4,16.32,4,5.16,0,9.79-1,13.9-2.99,4.1-1.99,7.49-4.6,10.16-7.83,2.67-3.23,4.56-6.72,5.67-10.47v-13.99h-32.73v11.09h19.09c-1.17,3.52-3.04,6.22-5.59,8.09-2.55,1.88-5.67,2.81-9.37,2.81-5.4,0-9.63-1.6-12.71-4.79-3.08-3.2-4.62-7.64-4.62-13.33,0-5.34,1.47-9.6,4.4-12.8,2.93-3.2,6.83-4.79,11.7-4.79,2.81,0,5.26.54,7.35,1.63,2.08,1.09,3.68,2.65,4.79,4.71h16.63ZM272.07.88v24.19h-23.4V.88h-15.04v61.76h15.04v-25.42h23.4v25.42h15.04V.88h-15.04Zm22.52,0v12.05h16.36v49.71h15.04V12.93h16.36V.88h-47.77Zm112.43,0v24.19h-23.4V.88h-15.04v61.76h15.04v-25.42h23.4v25.42h15.04V.88h-15.04Zm55.07,62.37c5.81,0,11.11-1.35,15.92-4.05,4.81-2.7,8.62-6.47,11.44-11.3,2.81-4.84,4.22-10.28,4.22-16.32s-1.39-11.47-4.18-16.28c-2.79-4.81-6.6-8.56-11.44-11.26-4.84-2.7-10.16-4.05-15.97-4.05s-11.13,1.35-15.97,4.05c-4.84,2.7-8.68,6.45-11.52,11.26-2.85,4.81-4.27,10.24-4.27,16.28s1.42,11.48,4.27,16.32c2.84,4.84,6.69,8.61,11.52,11.3,4.84,2.7,10.16,4.05,15.97,4.05Zm0-13.72c-4.99,0-8.96-1.63-11.92-4.88-2.96-3.26-4.44-7.61-4.44-13.06s1.48-9.88,4.44-13.11c2.96-3.23,6.93-4.84,11.92-4.84s8.87,1.63,11.83,4.88c2.96,3.26,4.44,7.61,4.44,13.06s-1.48,9.74-4.44,13.02c-2.96,3.29-6.91,4.93-11.83,4.93Zm88.41,13.11l-14.25-24.46c4.52-1.35,7.93-3.64,10.25-6.86,2.32-3.22,3.48-6.89,3.48-11,0-3.64-.85-6.93-2.55-9.9-1.7-2.96-4.27-5.29-7.7-6.99-3.43-1.7-7.58-2.55-12.45-2.55h-25.25v61.76h15.04v-23.31h3.61l12.84,23.31h16.98Zm-33.43-49.26h9.32c2.76,0,4.82.67,6.2,2.02,1.38,1.35,2.07,3.2,2.07,5.54,0,2.46-.69,4.37-2.07,5.72-1.38,1.35-3.45,2.02-6.2,2.02h-9.32v-15.31Zm42.31-12.49v61.76h15.04V.88h-15.04Zm68.53,11.44V.88h-43.63v12.32h26.39l-26.39,38v11.44h43.63v-12.32h-26.57l26.57-38Zm39.06,50.94c5.81,0,11.11-1.35,15.92-4.05,4.81-2.7,8.62-6.47,11.44-11.3s4.22-10.28,4.22-16.32-1.39-11.47-4.18-16.28c-2.79-4.81-6.6-8.56-11.44-11.26-4.84-2.7-10.16-4.05-15.97-4.05s-11.13,1.35-15.97,4.05c-4.84,2.7-8.68,6.45-11.52,11.26-2.84,4.81-4.27,10.24-4.27,16.28s1.42,11.48,4.27,16.32,6.69,8.61,11.52,11.3c4.84,2.7,10.16,4.05,15.97,4.05Zm0-13.72c-4.99,0-8.96-1.63-11.92-4.88-2.96-3.26-4.44-7.61-4.44-13.06s1.48-9.88,4.44-13.11c2.96-3.23,6.93-4.84,11.92-4.84s8.87,1.63,11.83,4.88c2.96,3.26,4.44,7.61,4.44,13.06s-1.48,9.74-4.44,13.02c-2.96,3.29-6.91,4.93-11.83,4.93ZM762.17.88h-15.04v38.27L721.96.88h-15.04v61.76h15.04V24.54l25.16,38.09h15.04V.88Zm29.56,0v61.76h15.04V.88h-15.04Zm81.2,0h-15.04v38.27L832.72.88h-15.04v61.76h15.04V24.54l25.16,38.09h15.04V.88Zm33.25,62.37c4.63,0,8.65-.85,12.05-2.55,3.4-1.7,6-3.99,7.79-6.86,1.79-2.87,2.68-6.07,2.68-9.59,0-3.69-.91-6.72-2.73-9.06-1.82-2.35-3.97-4.14-6.47-5.37-2.49-1.23-5.73-2.52-9.72-3.87-3.99-1.29-6.92-2.49-8.8-3.61-1.88-1.11-2.81-2.67-2.81-4.66,0-1.82.56-3.21,1.67-4.18,1.11-.97,2.58-1.45,4.4-1.45,2.11,0,3.84.57,5.19,1.72,1.35,1.14,2.08,2.71,2.2,4.71h16.27c-.29-5.81-2.52-10.34-6.69-13.59-4.17-3.25-9.65-4.88-16.45-4.88s-12.11,1.63-16.27,4.88c-4.17,3.26-6.25,7.76-6.25,13.5,0,3.87.91,7.01,2.73,9.41,1.82,2.41,3.99,4.22,6.51,5.45,2.52,1.23,5.78,2.46,9.76,3.69,2.76.82,4.88,1.55,6.38,2.2,1.5.65,2.76,1.47,3.78,2.46,1.03,1,1.54,2.26,1.54,3.78,0,1.82-.65,3.24-1.94,4.27-1.29,1.03-3.05,1.54-5.28,1.54s-3.93-.6-5.28-1.8c-1.35-1.2-2.14-2.95-2.38-5.23h-16.01c.12,4.05,1.24,7.51,3.39,10.38,2.14,2.87,5,5.05,8.58,6.51,3.58,1.47,7.62,2.2,12.14,2.2ZM934.59.88v12.05h16.36v49.71h15.04V12.93h16.36V.88h-47.77Zm55.33,0v61.76h15.04V.88h-15.04Zm22.61,0v12.05h16.36v49.71h15.04V12.93h16.36V.88h-47.77Zm55.07,0v36.86c0,5.51,1.11,10.19,3.34,14.03,2.23,3.84,5.26,6.72,9.11,8.62,3.84,1.91,8.2,2.86,13.06,2.86s9.28-.97,13.24-2.9c3.96-1.94,7.11-4.81,9.46-8.62,2.35-3.81,3.52-8.47,3.52-13.99V.88h-15.04v36.95c0,3.69-.94,6.54-2.81,8.53-1.88,1.99-4.57,2.99-8.09,2.99s-6.19-1-8.01-2.99c-1.82-1.99-2.73-4.84-2.73-8.53V.88h-15.04Zm58.94,0v12.05h16.36v49.71h15.04V12.93h16.36V.88h-47.77Zm93.16,12.05V.88h-37.83v61.76h37.83v-12.05h-22.79v-13.55h20.15v-11.61h-20.15v-12.49h22.79Zm25.31,103.28h-10.62v.03h-570.68v206.87h-82.47V116.24H0v68.73h471.29v398.13h109.97v-206.38h82.47v206.38h109.95V184.97h471.12s0,0,.01-.01c0-.05,0-.09,0-.14h.2v-68.61Z"/></svg>